<svg width="1200" height="900" viewBox="0 0 1200 900" fill="none" xmlns="http://www.w3.org/2000/svg">
  <rect width="1200" height="900" rx="44" fill="#EFE6D8"/>
  <circle cx="290" cy="240" r="170" fill="#C78357" fill-opacity="0.16"/>
  <circle cx="910" cy="260" r="210" fill="#6D7A9D" fill-opacity="0.15"/>
  <circle cx="650" cy="640" r="260" fill="#7A8D68" fill-opacity="0.16"/>
  <path d="M130 440C260 330 410 340 520 430C630 520 790 530 920 430C997 371 1047 295 1071 209" stroke="#171411" stroke-opacity="0.18" stroke-width="2"/>
  <path d="M167 571C319 476 461 483 578 561C695 639 825 643 975 563" stroke="#171411" stroke-opacity="0.14" stroke-width="2"/>
  <path d="M207 700C336 628 484 624 602 688C720 752 851 754 986 684" stroke="#171411" stroke-opacity="0.1" stroke-width="2"/>
  <circle cx="412" cy="393" r="18" fill="#171411"/>
  <circle cx="767" cy="505" r="20" fill="#C78357"/>
  <circle cx="627" cy="686" r="14" fill="#7A8D68"/>
  <circle cx="967" cy="564" r="16" fill="#6D7A9D"/>
</svg>
