<svg width="800" height="560" viewBox="0 0 800 560" fill="none" xmlns="http://www.w3.org/2000/svg">
  <rect width="800" height="560" rx="34" fill="#F1ECDD"/>
  <path d="M134 420C218 366 275 341 345 322C430 299 498 290 666 166" stroke="#171411" stroke-opacity="0.2" stroke-width="4" stroke-linecap="round"/>
  <path d="M134 420L270 340L372 354L491 259L621 233" stroke="#C78357" stroke-width="10" stroke-linecap="round" stroke-linejoin="round"/>
  <circle cx="270" cy="340" r="18" fill="#171411"/>
  <circle cx="372" cy="354" r="18" fill="#C78357"/>
  <circle cx="491" cy="259" r="18" fill="#7A8D68"/>
  <circle cx="621" cy="233" r="18" fill="#6D7A9D"/>
  <rect x="143" y="168" width="108" height="140" rx="18" fill="#171411" fill-opacity="0.08"/>
  <rect x="284" y="197" width="108" height="111" rx="18" fill="#C78357" fill-opacity="0.18"/>
  <rect x="425" y="144" width="108" height="164" rx="18" fill="#171411" fill-opacity="0.08"/>
  <rect x="566" y="108" width="108" height="200" rx="18" fill="#7A8D68" fill-opacity="0.22"/>
</svg>
